<svg version="1.1" xmlns="http://www.w3.org/2000/svg" x="0" y="0" viewBox="-153 -46 652 652"
     xml:space="preserve"><style>.st0{fill:#fff}</style>
    <path class="st0" d="M416 362l-20-26a119 119 0 0022-55v-21c-3-61-55-109-116-108-66 2-117 58-113 123 5 63 62 110 124 107l4-1a21 21 0 10-3-42h-4c-39 2-74-26-78-64a72 72 0 11136 25l-15-19c-4-5-10-8-17-8-5 0-10 1-14 4-4 4-7 9-8 15-1 5 1 11 4 16l64 81c4 5 10 9 17 9a22 22 0 0021-15c2-7 1-15-4-21zM30 265v57H16v-57c0-20-11-32-29-32-12 0-23 6-31 19l1 13v57h-14v-57c0-20-11-32-29-32-12 0-22 6-30 18v71h-15v-99h15v11c8-9 18-14 33-14 14 0 26 6 33 18 10-12 22-18 40-18 24 0 40 17 40 45zM89 375H73l22-48-50-104h15l43 87 39-87h16L89 375z"/>
    <path class="st0" d="M469 329c0 13-10 22-23 22-12 0-22-9-22-22 0-12 10-22 22-22 13 0 23 10 23 22zm-4 0c0-10-9-18-19-18-9 0-18 8-18 18s9 18 18 18c10 0 19-7 19-18zm-15 3l6 7h-4l-6-7h-4v7h-3v-21h9c4 0 8 3 8 7-1 4-3 6-6 7zm-8-3h5c3 0 5-1 5-4 0-2-2-4-5-4h-5v8z"/>
</svg>